<?xml version="1.0"?>
<svg xmlns:rdf="http://www.w3.org/1999/02/22-rdf-syntax-ns#" xmlns="http://www.w3.org/2000/svg" xmlns:cc="http://creativecommons.org/ns#" xmlns:dc="http://purl.org/dc/elements/1.1/" xmlns:svg="http://www.w3.org/2000/svg" id="svg12417" viewBox="0 0 272.48 272.48" version="1.1">
  <g id="layer1" transform="translate(-212.27 -406.16)">
    <g id="g13175" transform="translate(-.55851 -.022992)">
      <path id="path12427" style="color:#000000" d="m531.77 557.68c0 99.758-80.87 180.63-180.63 180.63-99.758 0-180.63-80.87-180.63-180.63 0-99.758 80.87-180.63 180.63-180.63 99.758 0 180.63 80.87 180.63 180.63z" transform="matrix(.68096 0 0 .68096 109.95 162.66)" stroke="#f00" stroke-linecap="round" stroke-width="5.8741" fill="#fff"/>
      <path id="path12427-9" style="color:#000000" d="m531.77 557.68c0 99.758-80.87 180.63-180.63 180.63-99.758 0-180.63-80.87-180.63-180.63 0-99.758 80.87-180.63 180.63-180.63 99.758 0 180.63 80.87 180.63 180.63z" transform="matrix(.56747 0 0 .56747 149.8 225.95)" stroke="#f00" stroke-linecap="round" stroke-width="8.8111" fill="#f00"/>
      <path id="path12427-9-3" d="m531.77 557.68c0 99.758-80.87 180.63-180.63 180.63-99.758 0-180.63-80.87-180.63-180.63 0-99.758 80.87-180.63 180.63-180.63 99.758 0 180.63 80.87 180.63 180.63z" style="color:#000000" fill="#fff" transform="matrix(.49826 0 0 .49826 174.1 264.55)"/>
      <path id="path12427-9-3-9" d="m531.77 557.68c0 99.758-80.87 180.63-180.63 180.63-99.758 0-180.63-80.87-180.63-180.63 0-99.758 80.87-180.63 180.63-180.63 99.758 0 180.63 80.87 180.63 180.63z" style="color:#000000" fill="#f00" transform="matrix(.41522 0 0 .41522 203.26 310.86)"/>
      <path id="path12427-9-3-9-8" d="m531.77 557.68c0 99.758-80.87 180.63-180.63 180.63-99.758 0-180.63-80.87-180.63-180.63 0-99.758 80.87-180.63 180.63-180.63 99.758 0 180.63 80.87 180.63 180.63z" style="color:#000000" fill="#fff" transform="matrix(.33218 0 0 .33218 232.42 357.17)"/>
      <path id="path12427-9-3-9-8-5" d="m531.77 557.68c0 99.758-80.87 180.63-180.63 180.63-99.758 0-180.63-80.87-180.63-180.63 0-99.758 80.87-180.63 180.63-180.63 99.758 0 180.63 80.87 180.63 180.63z" style="color:#000000" fill="#f00" transform="matrix(.24913 0 0 .24913 261.58 403.48)"/>
      <path id="path12427-9-3-9-8-2" d="m531.77 557.68c0 99.758-80.87 180.63-180.63 180.63-99.758 0-180.63-80.87-180.63-180.63 0-99.758 80.87-180.63 180.63-180.63 99.758 0 180.63 80.87 180.63 180.63z" style="color:#000000" fill="#fff" transform="matrix(.16609 0 0 .16609 290.74 449.79)"/>
      <path id="path12427-9-3-9-8-2-3" d="m531.77 557.68c0 99.758-80.87 180.63-180.63 180.63-99.758 0-180.63-80.87-180.63-180.63 0-99.758 80.87-180.63 180.63-180.63 99.758 0 180.63 80.87 180.63 180.63z" style="color:#000000" fill="#f00" transform="matrix(.083044 0 0 .083044 319.9 496.11)"/>
    </g>
    <path id="path13189" d="m-11.049 124.98h270.98" transform="translate(224.06 417.42)" stroke="#000" stroke-width="1.5" fill="none"/>
    <path id="path13189-0" d="m348.51 406.91v270.98" stroke="#000" stroke-width="1.5" fill="none"/>
  </g>
  <metadata>
    <rdf:RDF>
      <cc:Work>
        <dc:format>image/svg+xml</dc:format>
        <dc:type rdf:resource="http://purl.org/dc/dcmitype/StillImage"/>
        <cc:license rdf:resource="http://creativecommons.org/licenses/publicdomain/"/>
        <dc:publisher>
          <cc:Agent rdf:about="http://openclipart.org/">
            <dc:title>Openclipart</dc:title>
          </cc:Agent>
        </dc:publisher>
        <dc:title>Target</dc:title>
        <dc:date>2010-03-24T04:08:05</dc:date>
        <dc:description>A simple red target sign, done in Inkscape.</dc:description>
        <dc:source>http://openclipart.org/detail/33643/target-by-j_alves</dc:source>
        <dc:creator>
          <cc:Agent>
            <dc:title>J_Alves</dc:title>
          </cc:Agent>
        </dc:creator>
        <dc:subject>
          <rdf:Bag>
            <rdf:li>clip art</rdf:li>
            <rdf:li>clipart</rdf:li>
            <rdf:li>shooting</rdf:li>
            <rdf:li>sign</rdf:li>
            <rdf:li>sport</rdf:li>
            <rdf:li>sports2010</rdf:li>
            <rdf:li>symbol</rdf:li>
            <rdf:li>target</rdf:li>
          </rdf:Bag>
        </dc:subject>
      </cc:Work>
      <cc:License rdf:about="http://creativecommons.org/licenses/publicdomain/">
        <cc:permits rdf:resource="http://creativecommons.org/ns#Reproduction"/>
        <cc:permits rdf:resource="http://creativecommons.org/ns#Distribution"/>
        <cc:permits rdf:resource="http://creativecommons.org/ns#DerivativeWorks"/>
      </cc:License>
    </rdf:RDF>
  </metadata>
</svg>
